<svg height="371" viewBox="0 0 3140 371" width="3140" xmlns="http://www.w3.org/2000/svg"><path d="m117.5 302.64-20.67 59.36h-96.46l127.2-353.51h92.22l133.03 353.51h-97.52l-21.73-59.36zm83.74-86.92-27.56-75.79-25.97 75.79zm288.85 146.28h-90.63v-353.51h181.26c16.960085 0 32.948258 3.2683007 47.965 9.805s28.089944 15.4582768 39.22 26.765 19.874968 24.4682582 26.235 39.485 9.54 31.004915 9.54 47.965c0 16.253415-3.091636 31.799926-9.275 46.64s-14.839944 28.001609-25.97 39.485-24.114926 20.581633-38.955 27.295-31.093245 10.07-48.76 10.07h-90.63zm0-265.53v72.61h90.63c9.540048 0 17.754966-3.533298 24.645-10.6s10.335-15.546617 10.335-25.44-3.268301-18.46163-9.805-25.705-14.928282-10.865-25.175-10.865zm357.75 265.53h-89.57v-353.51h188.15c16.960085 0 32.683261 3.0033033 47.17 9.01 14.48674 6.0066967 27.02995 14.2216145 37.63 24.645 10.60005 10.4233854 18.9033 22.6132635 24.91 36.57 6.0067 13.9567364 9.01 29.061585 9.01 45.315 0 12.366728-1.76665 24.379942-5.3 36.04s-8.39164 22.348285-14.575 32.065-13.51496 18.108298-21.995 25.175-17.66662 12.366649-27.56 15.9c1.41334 2.473346 4.151646 7.066633 8.215 13.78 4.06335 6.713367 8.65664 14.486622 13.78 23.32s10.59997 18.196617 16.43 28.09 11.39497 19.256622 16.695 28.09c5.30003 8.833377 9.89331 16.518301 13.78 23.055s6.35999 10.688324 7.42 12.455h-111.83c-1.060005-1.766676-3.268317-5.564971-6.625-11.395s-7.243311-12.631628-11.66-20.405-9.186641-16.164955-14.31-25.175-9.893311-17.578293-14.31-25.705-8.391649-15.281636-11.925-21.465-6.00666-10.334989-7.42-12.455h-46.11zm0-266.59v64.13h90.1c10.600053 0 19.344966-3.003303 26.235-9.01s10.335-13.956617 10.335-23.85c0-9.186713-3.268301-16.694971-9.805-22.525-6.536699-5.8300292-15.458277-8.745-26.765-8.745zm373.12 266.59h-91.69v-353.51h91.69zm343.97 0h-281.43v-353.51h90.63v267.65h102.82v-72.61h87.98zm471.17-248.04c0 14.486739-2.91497 29.414923-8.745 44.785s-13.07329 30.298261-21.73 44.785-17.84328 28.089936-27.56 40.81-18.46163 23.496622-26.235 32.33h92.22v85.33h-265l134.09-174.37c8.48004-10.953388 15.45831-21.199952 20.935-30.74s8.215-19.609947 8.215-30.21c0-14.133404-4.41662-25.086628-13.25-32.86-8.83338-7.7733722-19.25661-11.66-31.27-11.66-7.42004 0-14.48663 1.4133192-21.2 4.24s-13.16164 6.5366437-19.345 11.13c-6.18336 4.593356-12.01331 9.804971-17.49 15.635s-10.68831 11.748303-15.635 17.755l-49.29-65.19c16.60675-19.7867656 36.74655-35.6866066 60.42-47.7s48.5832-18.02 74.73-18.02c18.02009 0 34.71492 3.0033033 50.085 9.01s28.70828 14.2216146 40.015 24.645c11.30672 10.4233855 20.13997 22.5249311 26.5 36.305s9.54 28.4432556 9.54 43.99zm240.09 256.52c-25.44013 0-49.46655-4.858285-72.08-14.575s-42.31158-22.87825-59.095-39.485-30.03328-36.216554-39.75-58.83-14.575-46.639873-14.575-72.08c0-25.793462 4.85828-49.908221 14.575-72.345 9.71672-22.4367789 22.96658-42.0465828 39.75-58.83 16.78342-16.7834173 36.48155-30.0332848 59.095-39.75 22.61345-9.71671525 46.63987-14.575 72.08-14.575s49.46655 4.85828475 72.08 14.575c22.61345 9.7167152 42.22325 22.8782503 58.83 39.485s29.76828 36.2165536 39.485 58.83c9.71672 22.613446 14.575 46.639873 14.575 72.08 0 25.793462-4.85828 49.908221-14.575 72.345s-22.87825 42.046583-39.485 58.83-36.21655 30.033285-58.83 39.75-46.63987 14.575-72.08 14.575zm0-83.21c14.1334 0 27.20661-2.561641 39.22-7.685s22.52495-12.278287 31.535-21.465 16.07664-19.963272 21.2-32.33c5.12336-12.366729 7.685-25.793261 7.685-40.28 0-18.72676-4.41662-36.039921-13.25-51.94l-111.3 151.05c4.59336.70667 8.92165 1.324997 12.985 1.855s8.03831.795 11.925.795zm-2.12-204.05c-13.78007 0-26.67661 2.6499735-38.69 7.95s-22.34829 12.63162-31.005 21.995-15.54664 20.316604-20.67 32.86-7.685 26.058261-7.685 40.545c0 17.31342 3.70996 32.859931 11.13 46.64l109.71-147.87c-4.94669-.7066702-9.18665-1.2366649-12.72-1.59s-6.88998-.53-10.07-.53zm325.95-81.09v359.87h-86.92v-294.68zm326.48 126.14c0 19.080095-4.15163 39.308226-12.455 60.685s-18.46161 42.488229-30.475 63.335-24.73327 40.721572-38.16 59.625-25.43995 35.598261-36.04 50.085h-99.64l76.32-106.53c-6.0067 1.41334-12.0133 2.12-18.02 2.12-16.60675 0-31.9766-3.003303-46.11-9.01s-26.41161-14.398279-36.835-25.175-18.54997-23.496593-24.38-38.16-8.745-30.65158-8.745-47.965c0-19.433431 3.5333-37.4532503 10.6-54.06s16.8716-31.0932715 29.415-43.46 27.11825-22.083298 43.725-29.15 34.4499-10.6 53.53-10.6 36.92325 3.44496555 53.53 10.335c16.60675 6.8900345 31.09327 16.1649417 43.46 27.825s22.17163 25.2632556 29.415 40.81 10.865 31.97658 10.865 49.29zm-81.62 2.65c0-7.773372-1.41332-15.016633-4.24-21.73s-6.80164-12.5433086-11.925-17.49-11.04163-8.8333192-17.755-11.66-13.77996-4.24-21.2-4.24c-7.77337 0-15.01663 1.4133192-21.73 4.24s-12.63164 6.801641-17.755 11.925c-5.12336 5.1233589-9.18665 11.041633-12.19 17.755s-4.505 13.956628-4.505 21.73c0 7.420037 1.50165 14.574966 4.505 21.465s6.97831 12.808309 11.925 17.755 10.77663 8.921652 17.49 11.925 13.95663 4.505 21.73 4.505 15.01663-1.501652 21.73-4.505 12.63164-7.066641 17.755-12.19 9.09832-11.041633 11.925-17.755 4.24-13.956628 4.24-21.73z" fill="#fff"/></svg>