<svg height="253" viewBox="0 0 1440 253" width="1440" xmlns="http://www.w3.org/2000/svg"><g fill="none" fill-rule="evenodd"><path d="m0 0h1440v253h-1440z" fill="#ff000a"/><g fill="#fff"><path d="m126.13 219.221902h-47.816v-139.1576943h-45.314v-45.4610379h138.444v45.4610379h-45.314z"/><path d="m325.065445 150.5663h-63.128349v69.4337h-46.937096v-186h46.937096v69.996585h63.128349v-69.996585h46.934555v186h-46.934555z"/><path d="m571 220h-146v-186h146v45.7331334h-99.535503v24.5423126h76.714411v45.733133h-76.714411v24.26087h99.535503z"/><path d="m741.10566 220h-47.10566v-186h146v45.7331334h-98.89434v24.5423126h76.581132v45.733133h-76.581132z"/><path d="m953.296241 143.037065-14.309775-39.877062-13.486758 39.877062zm-43.4797 45.733133-10.73233 31.229802h-50.084211l66.045113-186h47.882707l69.07218 186h-50.634586l-11.285255-31.229802z"/><path d="m1185.42131 95.2234512c-2.19016-2.2228551-4.51721-4.4405707-6.98115-6.660856-2.46393-2.2202853-5.20164-4.2529771-8.21058-6.1057846-3.01401-1.847668-6.39304-3.330428-10.13204-4.4431405-3.74153-1.1075728-7.98751-1.6626442-12.73033-1.6626442-6.753 0-13.09789 1.3414224-19.02705 4.0216974-5.93422 2.6854145-11.13333 6.295948-15.60491 10.823891-4.47412 4.538222-8.03314 9.9013417-10.67705 16.0996387-2.64645 6.200866-3.96968 12.812896-3.96968 19.8438 0 6.658286 1.27507 13.044176 3.83279 19.149961 2.55266 6.105784 6.06605 11.474044 10.54017 16.094498 4.46905 4.628165 9.67322 8.32864 15.60491 11.103997 5.92916 2.775357 12.36277 4.163035 19.30082 4.163035 8.0306 0 15.37424-1.989006 22.03853-5.967017 6.65921-3.975441 12.27151-8.834885 16.83688-14.570622l31.75738 32.749208c-3.10527 3.515452-6.98115 7.262183-11.63525 11.240195-4.65409 3.980581-9.94953 7.678486-15.87868 11.101426-5.9317 3.42551-12.50473 6.244553-19.71148 8.464838-7.21182 2.217716-15.01682 3.330428-23.40738 3.330428-12.961 0-25.23251-2.405309-36.81959-7.218497-11.59469-4.808049-21.81546-11.51516-30.66483-20.121336-8.85445-8.601036-15.87869-18.823599-21.08033-30.665121-5.20164-11.838952-7.80246-24.793186-7.80246-38.854993 0-13.876784 2.55266-26.735936 7.66557-38.5774578 5.10785-11.8389519 12.04591-22.1103413 20.80656-30.8064589 8.76066-8.6961175 18.97889-15.4957413 30.6623-20.3988714 11.67834-4.9031301 24.0918-7.3572649 37.23278-7.3572649 8.57815 0 16.46933 1.0202005 23.68115 3.0528923 7.20676 2.0404011 13.68853 4.6281642 19.43771 7.7735684 5.74918 3.147974 10.85702 6.5683441 15.33368 10.2688197 4.46651 3.7030453 8.34746 7.2133575 11.63271 10.5437855z"/><path d="m1408 220h-146v-186h146v45.7331334h-99.53296v24.5423126h76.71187v45.733133h-76.71187v24.26087h99.53296z"/></g></g></svg>